<?xml version="1.0" encoding="UTF-8" standalone="no"?>
<svg width="25px" height="25px" viewBox="0 0 25 25" version="1.1" xmlns="http://www.w3.org/2000/svg" xmlns:xlink="http://www.w3.org/1999/xlink">
    <!-- Generator: Sketch Beta 3.8.3 (29801) - http://www.bohemiancoding.com/sketch -->
    <title>GOOGLE+</title>
    <desc>Created with Sketch Beta.</desc>
    <defs/>
    <g id="Page-1" stroke="none" stroke-width="1" fill="none" fill-rule="evenodd">
        <g id="GOOGLE+">
            <path d="M12.7441406,24.2971429 C19.4534263,24.2971429 24.8927121,18.8585714 24.8927121,12.1485714 C24.8927121,5.44 19.4534263,0 12.7441406,0 C6.03485491,0 0.595569196,5.44 0.595569196,12.1485714 C0.595569196,18.8585714 6.03485491,24.2971429 12.7441406,24.2971429" id="Fill-1-Copy-2" fill="#2B2728"/>
            <path d="M19.2927354,11.6950359 L19.2927354,9.95843566 L18.0732606,9.95843566 L18.0732606,11.6950359 L16.317217,11.6950359 L16.317217,12.9354646 L18.0732606,12.9354646 L18.0732606,14.721682 L19.2927354,14.721682 L19.2927354,12.9354646 L21,12.9354646 L21,11.6950359 L19.2927354,11.6950359 L19.2927354,11.6950359 Z M10.4149592,11.5958016 L10.4149592,13.5804876 C10.4149592,13.5804876 12.3077791,13.5779075 13.0784872,13.5779075 C12.6611341,14.8645298 12.0121785,15.5651735 10.4149592,15.5651735 C8.79856983,15.5651735 7.53699882,14.2323081 7.53699882,12.5881446 C7.53699882,10.9439811 8.79856983,9.61111561 10.4149592,9.61111561 C11.2695671,9.61111561 11.8215014,9.91665802 12.3277785,10.342522 C12.7330344,9.93030274 12.6991818,9.87155603 13.7302233,8.88114811 C12.8549818,8.07080083 11.6917005,7.57681249 10.4149592,7.57681249 C7.69401839,7.57681249 5.48828125,9.82045037 5.48828125,12.5881446 C5.48828125,15.3557892 7.69401839,17.5994767 10.4149592,17.5994767 C14.482005,17.5994767 15.4760721,13.9972716 15.1465212,11.5958016 L10.4149592,11.5958016 L10.4149592,11.5958016 Z" id="GooglePlus" fill="#FFFFFF"/>
        </g>
    </g>
</svg>