<?xml version="1.0" encoding="UTF-8" standalone="no"?>
<!-- Created with Inkscape (http://www.inkscape.org/) -->
<svg id="svg3573" xmlns:rdf="http://www.w3.org/1999/02/22-rdf-syntax-ns#" xmlns="http://www.w3.org/2000/svg" height="25" width="25" version="1.1" xmlns:cc="http://creativecommons.org/ns#" xmlns:dc="http://purl.org/dc/elements/1.1/">

	<metadata id="metadata3578">

		<rdf:RDF>

			<cc:Work rdf:about="">

				<dc:format>image/svg+xml</dc:format>

				<dc:type rdf:resource="http://purl.org/dc/dcmitype/StillImage"/>

				<dc:title/>

			</cc:Work>

		</rdf:RDF>

	</metadata>

	<g id="layer1" transform="translate(-2.5922467,-3.24681)">

		<g id="g3209" transform="translate(2.5922467,-296.75319)">

			<path id="path3211" fill="#76828c" d="M25,312.5c0,6.9-5.598,12.5-12.5,12.5s-12.5-5.6-12.5-12.5,5.598-12.5,12.5-12.5,12.5,5.603,12.5,12.5z"/>

		</g>

		<polygon id="polygon3213" points="6.571,308.28,18.427,308.28,12.5,313.92" fill="#FFF" transform="translate(2.5922467,-296.75319)"/>

		<polygon id="polygon3215" points="5.833,317.45,19.167,317.45,14.723,313.22,12.5,315.33,10.275,313.22" fill="#FFF" transform="translate(2.5922467,-296.75319)"/>

		<polygon id="polygon3217" points="9.536,312.51,5.833,308.99,5.833,316.04" fill="#FFF" transform="translate(2.5922467,-296.75319)"/>

		<polygon id="polygon3219" points="19.167,308.99,15.463,312.51,19.167,316.04" fill="#FFF" transform="translate(2.5922467,-296.75319)"/>

	</g>

</svg>